# xmcd CD database file generated by Grip 2.7
# 
# Track frame offsets:
#       150
#       10153
#       23048
#       33334
#       42277
#       53547
#       64968
#       79925
#       91226
#       106039
#       117810
#       128059
#       138392
#       151418
#       169030
# 
# Disc length: 2426 seconds
# 
# Revision: 3
# Processed by: cddbd v1.4b41PL1 Copyright (c) Steve Scherf et al.
# Submitted via: Grip 2.7
# 
DISCID=b209780f
DTITLE=Gary Cook - Western Standard Time
DYEAR=1900
DGENRE=
TTITLE0=Chant of the Wanderer
TTITLE1=Ain't Misbehaving
TTITLE2=Dance With Me
TTITLE3=12th Street Rag
TTITLE4=Ashokin Farewell
TTITLE5=Whiskey Before Breakfast
TTITLE6=Grandfathers Clock
TTITLE7=William Tell Overture
TTITLE8=Western Standard Time
TTITLE9=Timberline
TTITLE10=St. Anne's Reel
TTITLE11=Durango
TTITLE12=Morning Waltz
TTITLE13=Peaches and Cream
TTITLE14=Malaguena
EXTD=
EXTT0=
EXTT1=
EXTT2=
EXTT3=
EXTT4=
EXTT5=
EXTT6=
EXTT7=
EXTT8=
EXTT9=
EXTT10=
EXTT11=
EXTT12=
EXTT13=
EXTT14=
PLAYORDER=
